<?xml version="1.0" encoding="UTF-8" standalone="no"?>
<!DOCTYPE svg PUBLIC "-//W3C//DTD SVG 1.1//EN" "http://www.w3.org/Graphics/SVG/1.1/DTD/svg11.dtd">
<svg width="100%" height="100%" viewBox="0 0 339 100" version="1.1" xmlns="http://www.w3.org/2000/svg" xmlns:xlink="http://www.w3.org/1999/xlink" xml:space="preserve" xmlns:serif="http://www.serif.com/" style="fill-rule:evenodd;clip-rule:evenodd;stroke-linejoin:round;stroke-miterlimit:2;">
    <g transform="matrix(1,0,0,1,-790.889,-140)">
        <g transform="matrix(0.75,0,0,0.972973,0,-1401.08)">
            <g transform="matrix(2.65149,0,0,2.04386,1002.86,1490.44)">
                <g transform="matrix(2.07614,0,0,2.07614,33.1239,62.782)">
                    <path d="M0,0.327L-6.44,-2.287C-6.503,-2.313 -6.571,-2.266 -6.571,-2.199L-6.571,2.506C-6.571,2.614 -6.417,2.64 -6.386,2.537C-5.939,1.094 -4.486,-1.556 0,0.327" style="fill:white;fill-rule:nonzero;"/>
                </g>
                <g transform="matrix(2.07614,0,0,2.07614,189.336,67.0639)">
                    <path d="M0,-4.42C-0.383,-4.277 -1.701,-3.78 -2.579,-3.401C-2.654,-3.369 -2.643,-3.26 -2.562,-3.245C-1.818,-3.11 0.125,-2.516 0.108,0.02L0.108,-4.341C0.108,-4.399 0.054,-4.44 0,-4.42" style="fill:white;fill-rule:nonzero;"/>
                </g>
                <g transform="matrix(2.07614,0,0,2.07614,52.7764,46.7447)">
                    <path d="M0,9.807C0,9.807 25.411,0 43.008,8.77C43.008,8.77 28.816,1.34 0,9.807" style="fill:white;fill-rule:nonzero;"/>
                </g>
                <g transform="matrix(2.07614,0,0,2.07614,145.227,60.053)">
                    <path d="M0,-3.877C-7.429,-1.804 -12.121,-2.127 -15.166,-3.015C-17.496,-3.695 -20.85,-5.278 -26.893,-6.231C-26.893,-6.231 -30.116,-6.739 -33.621,-6.874C-44.04,-7.274 -55.966,-3.319 -59.75,-1.96C-60.081,-1.841 -60.076,-1.375 -59.744,-1.26L-46.315,3.397C-44.359,2.661 -30.844,-2.804 -19.209,-2.357C-15.705,-2.222 -12.481,-1.714 -12.481,-1.714C-6.438,-0.761 -3.084,0.822 -0.754,1.501C1.998,2.304 6.098,2.644 12.344,1.173L0,-3.877Z" style="fill:white;fill-rule:nonzero;"/>
                </g>
                <g transform="matrix(2.07614,0,0,2.07614,188.519,52.2816)">
                    <path d="M0,1.872L-13.91,-2.487C-15.745,-1.764 -17.441,-1.172 -19.034,-0.673L-6.35,4.359C-4.419,3.817 -2.313,3.122 0.008,2.222C0.17,2.16 0.166,1.924 0,1.872" style="fill:white;fill-rule:nonzero;"/>
                </g>
                <g transform="matrix(2.07614,0,0,2.07614,28.5328,80.7487)">
                    <path d="M0,6.533C0.446,6.533 0.868,6.446 1.266,6.272C1.663,6.097 2.009,5.864 2.303,5.57C2.597,5.275 2.831,4.93 3.005,4.532C3.179,4.135 3.267,3.713 3.267,3.267C3.267,2.82 3.179,2.399 3.005,2.001C2.831,1.603 2.597,1.258 2.303,0.964C2.009,0.67 1.663,0.436 1.266,0.262C0.868,0.088 0.446,-0 0,-0C-0.446,-0 -0.868,0.088 -1.266,0.262C-1.663,0.436 -2.009,0.67 -2.303,0.964C-2.597,1.258 -2.831,1.603 -3.005,2.001C-3.179,2.399 -3.266,2.82 -3.266,3.267C-3.266,3.713 -3.179,4.135 -3.005,4.532C-2.831,4.93 -2.597,5.275 -2.303,5.57C-2.009,5.864 -1.663,6.097 -1.266,6.272C-0.868,6.446 -0.446,6.533 0,6.533M0,-0.817C0.566,-0.817 1.1,-0.711 1.601,-0.498C2.102,-0.286 2.534,0.003 2.899,0.367C3.264,0.733 3.552,1.165 3.765,1.666C3.977,2.167 4.083,2.701 4.083,3.267L4.083,7.35L3.267,7.35L3.267,5.716C2.896,6.206 2.423,6.601 1.846,6.901C1.269,7.2 0.653,7.35 0,7.35C-0.577,7.35 -1.113,7.243 -1.609,7.031C-2.104,6.819 -2.534,6.531 -2.899,6.166C-3.264,5.801 -3.552,5.371 -3.765,4.875C-3.977,4.38 -4.083,3.844 -4.083,3.267C-4.083,2.701 -3.977,2.167 -3.765,1.666C-3.552,1.165 -3.264,0.733 -2.899,0.367C-2.534,0.003 -2.104,-0.286 -1.609,-0.498C-1.113,-0.711 -0.577,-0.817 0,-0.817" style="fill:white;fill-rule:nonzero;"/>
                </g>
                <g transform="matrix(2.07614,0,0,2.07614,47.5211,79.0523)">
                    <path d="M0,8.167C-0.577,8.167 -1.113,8.061 -1.609,7.848C-2.104,7.636 -2.534,7.348 -2.899,6.983C-3.264,6.618 -3.552,6.188 -3.765,5.692C-3.977,5.197 -4.083,4.661 -4.083,4.084L-4.083,0L-3.266,0L-3.266,4.084C-3.266,4.53 -3.179,4.952 -3.005,5.349C-2.831,5.747 -2.597,6.092 -2.303,6.387C-2.009,6.681 -1.663,6.915 -1.266,7.089C-0.868,7.263 -0.446,7.35 0,7.35C0.446,7.35 0.868,7.263 1.266,7.089C1.663,6.915 2.009,6.681 2.303,6.387C2.597,6.092 2.831,5.747 3.005,5.349C3.179,4.952 3.267,4.53 3.267,4.084L3.267,0L4.083,0L4.083,4.084C4.083,4.661 3.974,5.197 3.756,5.692C3.539,6.188 3.242,6.618 2.866,6.983C2.491,7.348 2.058,7.636 1.568,7.848C1.078,8.061 0.556,8.167 0,8.167" style="fill:white;fill-rule:nonzero;"/>
                </g>
                <g transform="matrix(2.07614,0,0,2.07614,66.5095,80.7487)">
                    <path d="M0,6.533C0.392,6.533 0.757,6.471 1.094,6.345C1.432,6.22 1.739,6.049 2.017,5.831C2.294,5.613 2.534,5.355 2.735,5.055C2.937,4.756 3.087,4.432 3.185,4.083L4.001,4.083C3.903,4.552 3.729,4.985 3.479,5.382C3.228,5.779 2.929,6.125 2.581,6.419C2.232,6.713 1.837,6.941 1.396,7.105C0.955,7.268 0.49,7.35 0,7.35C-0.577,7.35 -1.113,7.243 -1.609,7.031C-2.104,6.819 -2.534,6.531 -2.899,6.166C-3.264,5.801 -3.552,5.371 -3.765,4.875C-3.977,4.38 -4.083,3.844 -4.083,3.267C-4.083,2.701 -3.977,2.167 -3.765,1.666C-3.552,1.165 -3.264,0.733 -2.899,0.367C-2.534,0.003 -2.104,-0.286 -1.609,-0.498C-1.113,-0.711 -0.577,-0.817 0,-0.817C0.49,-0.817 0.955,-0.735 1.396,-0.571C1.837,-0.408 2.232,-0.18 2.581,0.115C2.929,0.408 3.228,0.754 3.479,1.152C3.729,1.549 3.903,1.982 4.001,2.45L3.185,2.45C3.087,2.101 2.937,1.778 2.735,1.478C2.534,1.179 2.294,0.921 2.017,0.702C1.739,0.485 1.432,0.313 1.094,0.188C0.757,0.063 0.392,-0 0,-0C-0.447,-0 -0.868,0.088 -1.266,0.262C-1.663,0.436 -2.009,0.67 -2.303,0.964C-2.597,1.258 -2.831,1.603 -3.005,2.001C-3.179,2.399 -3.267,2.82 -3.267,3.267C-3.267,3.713 -3.179,4.135 -3.005,4.532C-2.831,4.93 -2.597,5.275 -2.303,5.57C-2.009,5.864 -1.663,6.097 -1.266,6.272C-0.868,6.446 -0.447,6.533 0,6.533" style="fill:white;fill-rule:nonzero;"/>
                </g>
                <g transform="matrix(2.07614,0,0,2.07614,85.3276,80.7487)">
                    <path d="M0,6.533C0.446,6.533 0.868,6.446 1.266,6.272C1.663,6.097 2.009,5.864 2.303,5.57C2.597,5.275 2.831,4.93 3.005,4.532C3.179,4.135 3.267,3.713 3.267,3.267C3.267,2.82 3.179,2.399 3.005,2.001C2.831,1.603 2.597,1.258 2.303,0.964C2.009,0.67 1.663,0.436 1.266,0.262C0.868,0.088 0.446,-0 0,-0C-0.446,-0 -0.868,0.088 -1.266,0.262C-1.663,0.436 -2.008,0.67 -2.303,0.964C-2.597,1.258 -2.831,1.603 -3.005,2.001C-3.179,2.399 -3.266,2.82 -3.266,3.267C-3.266,3.713 -3.179,4.135 -3.005,4.532C-2.831,4.93 -2.597,5.275 -2.303,5.57C-2.008,5.864 -1.663,6.097 -1.266,6.272C-0.868,6.446 -0.446,6.533 0,6.533M0,-0.817C0.556,-0.817 1.078,-0.711 1.568,-0.498C2.058,-0.286 2.491,0.003 2.867,0.367C3.242,0.733 3.539,1.165 3.756,1.666C3.974,2.167 4.083,2.701 4.083,3.267C4.083,3.844 3.974,4.38 3.756,4.875C3.539,5.371 3.242,5.801 2.867,6.166C2.491,6.531 2.058,6.819 1.568,7.031C1.078,7.243 0.556,7.35 0,7.35C-0.577,7.35 -1.113,7.243 -1.608,7.031C-2.104,6.819 -2.534,6.531 -2.899,6.166C-3.264,5.801 -3.552,5.371 -3.764,4.875C-3.977,4.38 -4.083,3.844 -4.083,3.267C-4.083,2.701 -3.977,2.167 -3.764,1.666C-3.552,1.165 -3.264,0.733 -2.899,0.367C-2.534,0.003 -2.104,-0.286 -1.608,-0.498C-1.113,-0.711 -0.577,-0.817 0,-0.817" style="fill:white;fill-rule:nonzero;"/>
                </g>
                <g transform="matrix(2.07614,0,0,2.07614,104.316,96.0091)">
                    <path d="M0,-8.167C0.556,-8.167 1.078,-8.058 1.568,-7.84C2.058,-7.623 2.491,-7.326 2.867,-6.95C3.242,-6.574 3.539,-6.142 3.756,-5.651C3.974,-5.162 4.083,-4.639 4.083,-4.084L4.083,0L3.267,0L3.267,-4.084C3.267,-4.53 3.179,-4.952 3.005,-5.35C2.831,-5.747 2.597,-6.093 2.303,-6.387C2.009,-6.68 1.663,-6.915 1.266,-7.089C0.868,-7.263 0.446,-7.35 0,-7.35C-0.446,-7.35 -0.868,-7.263 -1.266,-7.089C-1.663,-6.915 -2.008,-6.68 -2.303,-6.387C-2.597,-6.093 -2.831,-5.747 -3.005,-5.35C-3.179,-4.952 -3.267,-4.53 -3.267,-4.084L-3.267,0L-4.083,0L-4.083,-4.084C-4.083,-4.639 -3.977,-5.162 -3.765,-5.651C-3.552,-6.142 -3.264,-6.574 -2.899,-6.95C-2.534,-7.326 -2.104,-7.623 -1.609,-7.84C-1.113,-8.058 -0.577,-8.167 0,-8.167" style="fill:white;fill-rule:nonzero;"/>
                </g>
                <g transform="matrix(2.07614,0,0,2.07614,123.304,96.0075)">
                    <path d="M0,-9.636C0.566,-9.636 1.1,-9.53 1.601,-9.318C2.101,-9.105 2.534,-8.817 2.899,-8.452C3.264,-8.087 3.553,-7.655 3.765,-7.154C3.977,-6.653 4.083,-6.119 4.083,-5.553L3.267,-5.553C3.267,-5.999 3.179,-6.421 3.005,-6.819C2.831,-7.216 2.597,-7.562 2.303,-7.856C2.009,-8.15 1.663,-8.384 1.266,-8.558C0.868,-8.732 0.446,-8.82 0,-8.82C-0.446,-8.82 -0.868,-8.732 -1.266,-8.558C-1.663,-8.384 -2.009,-8.15 -2.303,-7.856C-2.597,-7.562 -2.831,-7.216 -3.005,-6.819C-3.179,-6.421 -3.267,-5.999 -3.267,-5.553L-3.267,-4.491L-1.062,-4.491L-1.062,-3.675L-3.267,-3.675L-3.267,0L-4.083,0L-4.083,-5.553C-4.083,-6.119 -3.977,-6.653 -3.765,-7.154C-3.552,-7.655 -3.264,-8.087 -2.899,-8.452C-2.534,-8.817 -2.104,-9.105 -1.609,-9.318C-1.113,-9.53 -0.577,-9.636 0,-9.636" style="fill:white;fill-rule:nonzero;"/>
                </g>
                <g transform="matrix(2.07614,0,0,2.07614,141.818,80.7487)">
                    <path d="M0,6.533C0.446,6.533 0.868,6.446 1.266,6.272C1.663,6.097 2.009,5.864 2.303,5.57C2.597,5.275 2.831,4.93 3.005,4.532C3.179,4.135 3.266,3.713 3.266,3.267C3.266,2.82 3.179,2.399 3.005,2.001C2.831,1.603 2.597,1.258 2.303,0.964C2.009,0.67 1.663,0.436 1.266,0.262C0.868,0.088 0.446,-0 0,-0C-0.447,-0 -0.868,0.088 -1.266,0.262C-1.664,0.436 -2.009,0.67 -2.303,0.964C-2.597,1.258 -2.831,1.603 -3.005,2.001C-3.179,2.399 -3.267,2.82 -3.267,3.267C-3.267,3.713 -3.179,4.135 -3.005,4.532C-2.831,4.93 -2.597,5.275 -2.303,5.57C-2.009,5.864 -1.664,6.097 -1.266,6.272C-0.868,6.446 -0.447,6.533 0,6.533M0,-0.817C0.555,-0.817 1.078,-0.711 1.568,-0.498C2.058,-0.286 2.49,0.003 2.866,0.367C3.242,0.733 3.539,1.165 3.756,1.666C3.974,2.167 4.083,2.701 4.083,3.267C4.083,3.844 3.974,4.38 3.756,4.875C3.539,5.371 3.242,5.801 2.866,6.166C2.49,6.531 2.058,6.819 1.568,7.031C1.078,7.243 0.555,7.35 0,7.35C-0.577,7.35 -1.113,7.243 -1.609,7.031C-2.104,6.819 -2.535,6.531 -2.899,6.166C-3.264,5.801 -3.552,5.371 -3.765,4.875C-3.977,4.38 -4.083,3.844 -4.083,3.267C-4.083,2.701 -3.977,2.167 -3.765,1.666C-3.552,1.165 -3.264,0.733 -2.899,0.367C-2.535,0.003 -2.104,-0.286 -1.609,-0.498C-1.113,-0.711 -0.577,-0.817 0,-0.817" style="fill:white;fill-rule:nonzero;"/>
                </g>
                <g transform="matrix(2.07614,0,0,2.07614,160.805,96.0091)">
                    <path d="M0,-8.167C0.556,-8.167 1.078,-8.061 1.568,-7.849C2.058,-7.636 2.491,-7.348 2.867,-6.983C3.242,-6.618 3.539,-6.185 3.757,-5.684C3.975,-5.183 4.083,-4.649 4.083,-4.084L3.267,-4.084C3.267,-4.53 3.179,-4.952 3.006,-5.35C2.831,-5.747 2.597,-6.093 2.303,-6.387C2.009,-6.68 1.664,-6.915 1.266,-7.089C0.868,-7.263 0.447,-7.35 0,-7.35C-0.446,-7.35 -0.868,-7.263 -1.265,-7.089C-1.663,-6.915 -2.008,-6.68 -2.302,-6.387C-2.597,-6.093 -2.831,-5.747 -3.005,-5.35C-3.179,-4.952 -3.266,-4.53 -3.266,-4.084L-3.266,0L-4.083,0L-4.083,-4.084C-4.083,-4.649 -3.977,-5.183 -3.764,-5.684C-3.552,-6.185 -3.264,-6.618 -2.898,-6.983C-2.534,-7.348 -2.104,-7.636 -1.608,-7.849C-1.113,-8.061 -0.577,-8.167 0,-8.167" style="fill:white;fill-rule:nonzero;"/>
                </g>
                <g transform="matrix(2.07614,0,0,2.07614,188.272,84.988)">
                    <path d="M0,1.225C0,1.802 -0.109,2.338 -0.327,2.833C-0.544,3.329 -0.841,3.759 -1.217,4.124C-1.593,4.489 -2.025,4.777 -2.515,4.989C-3.005,5.202 -3.528,5.308 -4.083,5.308C-4.66,5.308 -5.196,5.202 -5.692,4.989C-6.187,4.777 -6.618,4.489 -6.982,4.124C-7.347,3.759 -7.635,3.329 -7.848,2.833C-8.06,2.338 -8.166,1.802 -8.166,1.225L-8.166,-4.083L-7.35,-4.083L-7.35,-1.225L-5.145,-1.225L-5.145,-0.408L-7.35,-0.408L-7.35,1.225C-7.35,1.671 -7.263,2.093 -7.088,2.49C-6.914,2.888 -6.68,3.233 -6.386,3.528C-6.092,3.822 -5.747,4.056 -5.349,4.23C-4.952,4.404 -4.53,4.491 -4.083,4.491C-3.637,4.491 -3.215,4.404 -2.817,4.23C-2.42,4.056 -2.074,3.822 -1.78,3.528C-1.486,3.233 -1.252,2.888 -1.078,2.49C-0.904,2.093 -0.817,1.671 -0.817,1.225L0,1.225Z" style="fill:white;fill-rule:nonzero;"/>
                </g>
            </g>
        </g>
    </g>
</svg>
