<svg xmlns="http://www.w3.org/2000/svg" viewBox="0 0 81.92 24.22"><defs><style>.cls-1{fill:#4c4c4c;}.cls-2{fill:#3ba9e0;}.cls-3{fill:#595959;}.cls-4{fill:#acacac;}</style></defs><g id="Layer_2" data-name="Layer 2"><g id="Calque_1" data-name="Calque 1"><path class="cls-1" d="M6.57,8.54.13,5.93A.09.09,0,0,0,0,6v4.7a.1.1,0,0,0,.19,0C.63,9.31,2.09,6.66,6.57,8.54Z"/><path class="cls-1" d="M81.81,5.86c-.38.14-1.7.64-2.58,1a.08.08,0,0,0,0,.15,3.08,3.08,0,0,1,2.67,3.27V5.94A.08.08,0,0,0,81.81,5.86Z"/><path class="cls-1" d="M16,10.3s25.41-9.81,43-1C59.05,9.26,44.85,1.83,16,10.3Z"/><path class="cls-2" d="M60.57,3C53.14,5.1,48.45,4.77,45.4,3.89,43.07,3.21,39.72,1.62,33.68.67A64.14,64.14,0,0,0,27,0C16.53-.37,4.6,3.58.82,4.94a.37.37,0,0,0,0,.7L14.25,10.3c2-.74,15.47-6.2,27.11-5.75a64.14,64.14,0,0,1,6.73.64c6,.95,9.39,2.53,11.72,3.21,2.76.81,6.86,1.15,13.1-.32Z"/><path class="cls-2" d="M81.42,5,67.51.67C65.67,1.39,64,2,62.39,2.49l12.68,5c1.93-.54,4-1.24,6.36-2.14A.19.19,0,0,0,81.42,5Z"/><path class="cls-3" d="M4.36,16.05a4.08,4.08,0,0,1,1.6.32,4,4,0,0,1,2.16,2.17,3.91,3.91,0,0,1,.32,1.6v4.08H7.63V22.59a4.2,4.2,0,0,1-1.42,1.18,4,4,0,0,1-1.85.45,4.09,4.09,0,0,1-1.61-.32A4.22,4.22,0,0,1,1.46,23,4.22,4.22,0,0,1,.6,21.75a4,4,0,0,1-.32-1.61,3.91,3.91,0,0,1,.32-1.6,4,4,0,0,1,2.15-2.17A4.09,4.09,0,0,1,4.36,16.05Zm0,7.35a3,3,0,0,0,1.27-.26,3.35,3.35,0,0,0,1-.7,3.31,3.31,0,0,0,.71-1,3.16,3.16,0,0,0,.26-1.26,3.21,3.21,0,0,0-.26-1.27,3.43,3.43,0,0,0-.71-1,3.54,3.54,0,0,0-1-.7,3.23,3.23,0,0,0-2.54,0,3.54,3.54,0,0,0-1,.7,3.23,3.23,0,0,0-.7,1,3,3,0,0,0-.27,1.27,3,3,0,0,0,.27,1.26,3.13,3.13,0,0,0,.7,1,3.35,3.35,0,0,0,1,.7A3,3,0,0,0,4.36,23.4Z"/><path class="cls-3" d="M13.51,24.22a4.06,4.06,0,0,1-1.61-.32A4,4,0,0,1,10.61,23a4.08,4.08,0,0,1-.87-1.29,4.13,4.13,0,0,1-.32-1.61V16.05h.82v4.09a3.16,3.16,0,0,0,.26,1.26,3.46,3.46,0,0,0,.7,1,3.4,3.4,0,0,0,1,.7,3.21,3.21,0,0,0,2.53,0,3.4,3.4,0,0,0,1-.7,3.28,3.28,0,0,0,.7-1,3,3,0,0,0,.26-1.26V16.05h.82v4.09a4,4,0,0,1-.33,1.61A4.13,4.13,0,0,1,16.37,23a4.27,4.27,0,0,1-1.3.86A3.92,3.92,0,0,1,13.51,24.22Z"/><path class="cls-4" d="M22.65,23.4a3.3,3.3,0,0,0,1.1-.18,3.64,3.64,0,0,0,.92-.52A3.33,3.33,0,0,0,25.84,21h.81a3.78,3.78,0,0,1-.52,1.3,4.3,4.3,0,0,1-.9,1,4,4,0,0,1-1.18.68,3.86,3.86,0,0,1-1.4.25A4.13,4.13,0,0,1,21,23.9a4,4,0,0,1-2.15-2.15,4.13,4.13,0,0,1-.32-1.61,4.08,4.08,0,0,1,.32-1.6A4,4,0,0,1,21,16.37a4.13,4.13,0,0,1,1.61-.32,4.08,4.08,0,0,1,1.4.25,4,4,0,0,1,1.18.68,4.5,4.5,0,0,1,.9,1,3.78,3.78,0,0,1,.52,1.3h-.81a3.43,3.43,0,0,0-.45-1,3.34,3.34,0,0,0-.72-.78,3.6,3.6,0,0,0-.92-.51,3.07,3.07,0,0,0-1.1-.19,3.16,3.16,0,0,0-1.26.26,3.46,3.46,0,0,0-1,.7,3.4,3.4,0,0,0-.7,1,3,3,0,0,0-.26,1.27,3,3,0,0,0,.26,1.26,3.27,3.27,0,0,0,1.74,1.74A3,3,0,0,0,22.65,23.4Z"/><path class="cls-4" d="M31.72,16.05a3.92,3.92,0,0,1,1.56.32,4.12,4.12,0,0,1,1.3.87,4,4,0,0,1,.89,1.3,3.92,3.92,0,0,1,.33,1.6,4,4,0,0,1-.33,1.61A4.13,4.13,0,0,1,34.58,23a4.27,4.27,0,0,1-1.3.86,3.92,3.92,0,0,1-1.56.32,4.06,4.06,0,0,1-1.61-.32A4,4,0,0,1,28.82,23,4.08,4.08,0,0,1,28,21.75a4.13,4.13,0,0,1-.32-1.61,4.08,4.08,0,0,1,.32-1.6,3.91,3.91,0,0,1,.87-1.3,3.86,3.86,0,0,1,1.29-.87A4.06,4.06,0,0,1,31.72,16.05Zm0,7.35A3,3,0,0,0,33,23.14a3.27,3.27,0,0,0,1.74-1.74A3,3,0,0,0,35,20.14a3,3,0,0,0-.26-1.27,3.4,3.4,0,0,0-.7-1,3.46,3.46,0,0,0-1-.7,3.21,3.21,0,0,0-2.53,0,3.27,3.27,0,0,0-1.74,1.74,3.21,3.21,0,0,0-.26,1.27,3.16,3.16,0,0,0,.26,1.26,3.46,3.46,0,0,0,.7,1,3.4,3.4,0,0,0,1,.7A3,3,0,0,0,31.72,23.4Z"/><path class="cls-4" d="M40.86,16.05a3.78,3.78,0,0,1,1.57.33,4.3,4.3,0,0,1,1.3.89,4.49,4.49,0,0,1,.89,1.3A3.78,3.78,0,0,1,45,20.14v4.08h-.82V20.14a3.21,3.21,0,0,0-.26-1.27,3.27,3.27,0,0,0-1.74-1.74,3.21,3.21,0,0,0-1.27-.26,3.16,3.16,0,0,0-1.26.26,3.46,3.46,0,0,0-1,.7,3.4,3.4,0,0,0-.7,1,3,3,0,0,0-.26,1.27v4.08h-.82V20.14a3.93,3.93,0,0,1,.32-1.57,4.39,4.39,0,0,1,.86-1.3,4.13,4.13,0,0,1,1.29-.89A4,4,0,0,1,40.86,16.05Z"/><path class="cls-4" d="M50,14.58a4.12,4.12,0,0,1,1.6.32,4,4,0,0,1,2.16,2.17,3.91,3.91,0,0,1,.32,1.6h-.82A3,3,0,0,0,53,17.4a3.4,3.4,0,0,0-.7-1,3.46,3.46,0,0,0-1-.7A3.16,3.16,0,0,0,50,15.4a3.21,3.21,0,0,0-1.27.26A3.36,3.36,0,0,0,47,17.4a3.21,3.21,0,0,0-.26,1.27v1.06H49v.82H46.74v3.67h-.81V18.67a4,4,0,0,1,1.18-2.9,3.86,3.86,0,0,1,1.29-.87A4.06,4.06,0,0,1,50,14.58Z"/><path class="cls-4" d="M58.93,16.05a3.92,3.92,0,0,1,1.56.32,4.12,4.12,0,0,1,1.3.87,4,4,0,0,1,.89,1.3,3.92,3.92,0,0,1,.33,1.6,4,4,0,0,1-.33,1.61A4.13,4.13,0,0,1,61.79,23a4.27,4.27,0,0,1-1.3.86,3.92,3.92,0,0,1-1.56.32,4.06,4.06,0,0,1-1.61-.32A4,4,0,0,1,56,23a4.08,4.08,0,0,1-.87-1.29,4.13,4.13,0,0,1-.32-1.61,4.08,4.08,0,0,1,.32-1.6,3.91,3.91,0,0,1,.87-1.3,3.86,3.86,0,0,1,1.29-.87A4.06,4.06,0,0,1,58.93,16.05Zm0,7.35a3,3,0,0,0,1.26-.26,3.4,3.4,0,0,0,1-.7,3.28,3.28,0,0,0,.7-1,3.16,3.16,0,0,0,.26-1.26,3.21,3.21,0,0,0-.26-1.27,3.4,3.4,0,0,0-.7-1,3.59,3.59,0,0,0-1-.7,3.21,3.21,0,0,0-2.53,0,3.59,3.59,0,0,0-1,.7,3.4,3.4,0,0,0-.7,1,3.21,3.21,0,0,0-.26,1.27,3.16,3.16,0,0,0,.26,1.26,3.28,3.28,0,0,0,.7,1,3.4,3.4,0,0,0,1,.7A3,3,0,0,0,58.93,23.4Z"/><path class="cls-4" d="M68.07,16.05a3.93,3.93,0,0,1,1.57.32,4.24,4.24,0,0,1,1.3.87,4.12,4.12,0,0,1,.89,1.3,3.91,3.91,0,0,1,.32,1.6h-.81a3.21,3.21,0,0,0-.26-1.27,3.43,3.43,0,0,0-.71-1,3.54,3.54,0,0,0-1-.7,3.21,3.21,0,0,0-1.27-.26,3.12,3.12,0,0,0-1.26.26,3.46,3.46,0,0,0-1,.7,3.23,3.23,0,0,0-.7,1,3,3,0,0,0-.27,1.27v4.08H64V20.14a3.91,3.91,0,0,1,.32-1.6,4,4,0,0,1,2.15-2.17A4.09,4.09,0,0,1,68.07,16.05Z"/><path class="cls-4" d="M81.3,20.14A4,4,0,0,1,80.08,23a4.22,4.22,0,0,1-1.29.86,4,4,0,0,1-1.57.32,4.06,4.06,0,0,1-1.61-.32A4,4,0,0,1,74.32,23a4.25,4.25,0,0,1-.87-1.29,4.13,4.13,0,0,1-.32-1.61V14.83H74v2.86h2.21v.81H74v1.64a3.16,3.16,0,0,0,.26,1.26,3.46,3.46,0,0,0,.7,1,3.4,3.4,0,0,0,1,.7,3,3,0,0,0,1.27.26,3,3,0,0,0,1.26-.26,3.27,3.27,0,0,0,1.74-1.74,3,3,0,0,0,.26-1.26Z"/></g></g></svg>